<?xml version="1.0" standalone="no"?>
<!DOCTYPE svg PUBLIC "-//W3C//DTD SVG 1.1//EN" "http://www.w3.org/Graphics/SVG/1.1/DTD/svg11.dtd" >
<!--
2013-9-30: Created.
-->
<svg>
<metadata>
Created by iconfont
</metadata>
<defs>

<font id="iconfont" horiz-adv-x="1024" >
  <font-face
    font-family="iconfont"
    font-weight="500"
    font-stretch="normal"
    units-per-em="1024"
    ascent="896"
    descent="-128"
  />
    <missing-glyph />
    
    <glyph glyph-name="aixinyan" unicode="&#58891;" d="M232.570532-127.18493A903.912974 903.912974 0 0 0 102.430973 896l48.360838-24.99549a849.303263 849.303263 0 0 1 121.988857-961.782966zM1572.817813-128l-40.210136 36.406474A850.661714 850.661714 0 0 1 1655.411604 871.00451L1703.500752 896a904.184664 904.184664 0 0 0-130.682939-1024zM499.370214 538.727514L366.785443 670.768904a101.340409 101.340409 0 0 0-21.735208 36.949854 96.993367 96.993367 0 0 0 156.22181 102.427169 96.993367 96.993367 0 0 0 93.189705 17.659857 97.265057 97.265057 0 0 0 61.401963-122.803927 98.623508 98.623508 0 0 0-22.006898-35.863093z m-61.673654 267.886442a70.096047 70.096047 0 0 1-20.920138-3.260281 69.552666 69.552666 0 0 1-30.429291-113.566464l113.294773-113.023083 114.924914 111.392943a72.541258 72.541258 0 0 1 15.486336 25.53887 69.824357 69.824357 0 0 1-44.285487 88.570973 69.552666 69.552666 0 0 1-74.443089-19.833377l-10.324224-11.682675-10.052533 11.682675a70.367737 70.367737 0 0 1-53.251261 24.180419zM1295.150527 538.727514l-132.584771 132.04139a97.536747 97.536747 0 0 0-21.735208 36.949854 96.993367 96.993367 0 0 0 63.575484 121.717167 97.808437 97.808437 0 0 0 92.646326-19.289998 96.449987 96.449987 0 0 0 92.918015 17.659857 96.993367 96.993367 0 0 0 61.401963-122.803927 92.374635 92.374635 0 0 0-21.735208-35.863093zM1233.476873 806.613956a70.367737 70.367737 0 0 1-61.945343-37.493234 69.824357 69.824357 0 0 1-4.890422-54.338021 66.020695 66.020695 0 0 1 15.486336-27.16901l113.294773-113.023083 114.924914 111.392942a68.194216 68.194216 0 0 1 15.214646 25.53887 69.824357 69.824357 0 0 1-44.013797 90.744494 70.367737 70.367737 0 0 1-74.714779-19.833377l-10.324224-11.682675-10.052533 11.682675a69.824357 69.824357 0 0 1-52.979571 24.180419zM750.95525 236.064739h306.466436v-58.141682a153.233218 153.233218 0 0 0-153.233218-153.233219 153.233218 153.233218 0 0 0-153.233218 153.233219v58.141682z"  horiz-adv-x="1806" />

    
    <glyph glyph-name="daku" unicode="&#58892;" d="M1409.189225 707.225464l-124.401061 32.594165 106.745889 93.436604-45.360213 51.607427-175.73687-156.180371a13.580902 13.580902 0 0 1 5.432361-23.087533l217.29443-59.212732zM409.634848 707.225464l124.401061 32.594165-106.47427 93.436604L472.921851 884.86366l175.73687-156.180371a13.580902 13.580902 0 0 0-5.432361-23.087533l-217.294429-59.212732zM232.811506-128A903.944828 903.944828 0 0 0 102.706466 896l48.348011-25.260477a849.077984 849.077984 0 0 1 121.956499-961.527852zM1572.703283-128l-40.199469 36.668435A849.892838 849.892838 0 0 1 1655.275167 870.739523L1703.351559 896a904.488064 904.488064 0 0 0-130.648276-1024zM400.399835 625.196817m-53.237135 0a53.237135 53.237135 0 1 1 106.47427 0 53.237135 53.237135 0 1 1-106.47427 0ZM331.408854 488.029708m-61.928913 0a61.928912 61.928912 0 1 1 123.857825 0 61.928912 61.928912 0 1 1-123.857825 0ZM285.505405 316.095491m-81.485411 0a81.485411 81.485411 0 1 1 162.970823 0 81.485411 81.485411 0 1 1-162.970823 0ZM1415.708058 625.196817m-53.237135 0a53.237135 53.237135 0 1 1 106.47427 0 53.237135 53.237135 0 1 1-106.47427 0ZM1484.699039 488.029708m-61.928912 0a61.928912 61.928912 0 1 1 123.857825 0 61.928912 61.928912 0 1 1-123.857825 0ZM1530.602488 316.095491m-81.485411 0a81.485411 81.485411 0 1 1 162.970822 0 81.485411 81.485411 0 1 1-162.970822 0ZM715.748376 53.169231c0 135.809019 83.929973 246.35756 187.416446 246.357559 103.214854 0 187.144828-110.548541 187.144827-246.357559z"  horiz-adv-x="1806" />

    
    <glyph glyph-name="kaixin" unicode="&#58893;" d="M452.550498 884.86366h99.412202v-223.813262h-99.412202zM1254.366944 884.86366h99.412201v-223.813262h-99.412201zM902.621586-78.565517A380.265252 380.265252 0 0 0 524.529278 300.070027v55.953315h54.323608v-55.953315a324.311936 324.311936 0 1 1 648.352254 0v55.953315h54.323608v-55.953315a380.265252 380.265252 0 0 0-378.907162-378.635544zM232.811506-128A903.944828 903.944828 0 0 0 102.706466 896l48.348011-25.260477a849.077984 849.077984 0 0 1 121.956499-961.527852zM1572.703283-128l-40.199469 36.668435A849.892838 849.892838 0 0 1 1655.275167 870.739523L1703.351559 896a904.488064 904.488064 0 0 0-130.648276-1024z"  horiz-adv-x="1806" />

    
    <glyph glyph-name="haixiuhaixiu" unicode="&#58894;" d="M232.811506-128A903.944828 903.944828 0 0 0 102.706466 896l48.348011-25.260477a849.077984 849.077984 0 0 1 121.956499-961.527852zM1572.703283-128l-40.199469 36.668435A849.892838 849.892838 0 0 1 1655.275167 870.739523L1703.351559 896a904.488064 904.488064 0 0 0-130.648276-1024zM902.621586-38.09443c-123.314589 0-223.541645 91.535279-223.541645 204.256764h54.323608c0-81.485411 75.781432-149.933156 169.218037-149.933156s168.946419 67.361273 168.946419 149.933156h54.323607c0.543236-112.721485-99.68382-204.256764-223.270026-204.256764zM200.95071 365.77443l152.106101 398.680955 50.73825-19.366366-152.078939-398.680955zM403.197501 365.801592l152.078939 398.680954 50.738249-19.366366-152.078939-398.680955zM605.41713 365.801592l152.1061 398.680954 50.73825-19.339204-152.106101-398.708117zM801.688323 365.801592l152.160425 398.653793 50.738249-19.366366-152.160424-398.653794zM998.068164 349.748966l153.627162 396.833952 50.520955-19.556499-153.627162-396.833952zM1206.154742 349.06992l153.6 396.833953 50.520955-19.556499-153.6-396.833952zM1414.485777 348.119257l153.627162 396.833953 50.520954-19.556499-153.627161-396.833952z"  horiz-adv-x="1806" />

    
    <glyph glyph-name="nanguo" unicode="&#58895;" d="M452.550498 884.86366h99.412202v-223.813262h-99.412202zM1254.366944 884.86366h99.412201v-223.813262h-99.412201zM1282.886838-51.403714h-54.323608v55.953316a324.311936 324.311936 0 1 1-648.352254 0v-55.953316h-54.323608v55.953316a378.635544 378.635544 0 1 0 756.99947 0zM232.811506-128A903.944828 903.944828 0 0 0 102.706466 896l48.348011-25.260477a849.077984 849.077984 0 0 1 121.956499-961.527852zM1572.703283-128l-40.199469 36.668435A849.892838 849.892838 0 0 1 1655.275167 870.739523L1703.351559 896a904.488064 904.488064 0 0 0-130.648276-1024z"  horiz-adv-x="1806" />

    
    <glyph glyph-name="jingya" unicode="&#58896;" d="M232.570532-127.18493A903.912974 903.912974 0 0 0 102.430973 896l48.360838-24.99549a849.303263 849.303263 0 0 1 121.988857-961.782966zM1572.817813-128l-40.210136 36.406474A850.661714 850.661714 0 0 1 1655.411604 871.00451L1703.500752 896a904.184664 904.184664 0 0 0-130.682939-1024zM501.815425 705.001857m-108.676042 0a108.676041 108.676041 0 1 1 217.352083 0 108.676041 108.676041 0 1 1-217.352083 0ZM1304.1163 705.001857m-108.676041 0a108.676041 108.676041 0 1 1 217.352083 0 108.676041 108.676041 0 1 1-217.352083 0ZM902.558327-2.750862c-67.650836 0-122.532237 66.292385-122.532236 147.799416s54.338021 147.799416 122.532236 147.799416 122.260547-66.292385 122.260547-147.799416-54.338021-147.799416-122.260547-147.799416z m0 268.429822c-52.70788 0-95.363226-54.338021-95.363226-120.630406s42.655346-120.630406 95.363226-120.630406 95.091536 54.338021 95.091537 120.630406-40.753516 120.630406-95.091537 120.630406z"  horiz-adv-x="1806" />

    
    <glyph glyph-name="kun" unicode="&#58897;" d="M902.621586-15.006897a175.465252 175.465252 0 1 0 175.465252 175.193634 175.193634 175.193634 0 0 0-175.465252-175.193634z m0 309.916181a135.809019 135.809019 0 1 1 135.809018-135.809019 135.809019 135.809019 0 0 1-135.809018 135.809019zM352.595061 645.215066l-11.679576 72.956605 291.310345 46.555332 11.679575-72.956605zM1166.634318 697.691671l14.477241 72.440531 289.27321-57.800319-14.504403-72.44053zM232.811506-128A903.944828 903.944828 0 0 0 102.706466 896l48.348011-25.260477a849.077984 849.077984 0 0 1 121.956499-961.527852zM1572.703283-128l-40.199469 36.668435A849.892838 849.892838 0 0 1 1655.275167 870.739523L1703.351559 896a904.488064 904.488064 0 0 0-130.648276-1024zM355.039623 637.691247m-35.581963 0a35.581963 35.581963 0 1 1 71.163926 0 35.581963 35.581963 0 1 1-71.163926 0ZM1466.229013 637.691247m-35.581963 0a35.581963 35.581963 0 1 1 71.163926 0 35.581963 35.581963 0 1 1-71.163926 0Z"  horiz-adv-x="1806" />

    
    <glyph glyph-name="heixian" unicode="&#58898;" d="M253.182859 723.250928V822.66313h223.813263v-99.412202zM1054.999305 723.250928V822.66313h223.813262v-99.412202zM533.492673 143.889655v99.412202h465.553316v-99.412202zM1400.769066 357.109814h-49.706101V822.66313h49.706101zM1501.26774 231.079045h-49.706101V822.66313h49.706101zM1602.309649 118.085942h-49.7061V822.66313h49.7061zM232.811506-128A903.944828 903.944828 0 0 0 102.706466 896l48.348011-25.260477a849.077984 849.077984 0 0 1 121.956499-961.527852zM1572.703283-128l-40.199469 36.668435A849.892838 849.892838 0 0 1 1655.275167 870.739523L1703.351559 896a904.488064 904.488064 0 0 0-130.648276-1024z"  horiz-adv-x="1806" />

    
    <glyph glyph-name="piezui" unicode="&#58899;" d="M452.550498 772.957029h99.412202v-223.813262h-99.412202zM1254.366944 772.957029h99.412201v-223.813262h-99.412201zM232.811506-128A903.944828 903.944828 0 0 0 102.706466 896l48.348011-25.260477a849.077984 849.077984 0 0 1 121.956499-961.527852zM1572.703283-128l-40.199469 36.668435A849.892838 849.892838 0 0 1 1655.275167 870.739523L1703.351559 896a904.488064 904.488064 0 0 0-130.648276-1024zM232.811506-128A903.944828 903.944828 0 0 0 102.706466 896l48.348011-25.260477a849.077984 849.077984 0 0 1 121.956499-961.527852zM1572.703283-128l-40.199469 36.668435A849.892838 849.892838 0 0 1 1655.275167 870.739523L1703.351559 896a904.488064 904.488064 0 0 0-130.648276-1024zM899.090551 30.081698l-43.730504 32.050928c34.495491 46.98992 170.032891 173.292308 333.003714 135.809019l-12.49443-54.323608c-137.438727 32.865782-253.148011-81.485411-276.77878-113.536339z"  horiz-adv-x="1806" />

    
    <glyph glyph-name="pingdan" unicode="&#58900;" d="M452.550498 796.587798h99.412202v-223.813262h-99.412202zM683.969066 60.2313v99.412201h438.391512v-99.412201zM1254.366944 796.587798h99.412201v-223.813262h-99.412201zM232.811506-128A903.944828 903.944828 0 0 0 102.706466 896l48.348011-25.260477a849.077984 849.077984 0 0 1 121.956499-961.527852zM1572.703283-128l-40.199469 36.668435A849.892838 849.892838 0 0 1 1655.275167 870.739523L1703.351559 896a904.488064 904.488064 0 0 0-130.648276-1024z"  horiz-adv-x="1806" />

    
    <glyph glyph-name="wuyu" unicode="&#58901;" d="M318.201045 511.500252v81.157105h182.714358v-81.157105zM973.001407 511.500252v81.157105h182.714358v-81.157105zM547.037474 38.527285v81.157105h380.063603v-81.157105zM189.813165-127.334778A737.731393 737.731393 0 0 0 83.599358 707.740794l39.469849-20.400147a693.161507 693.161507 0 0 1 99.561586-784.962168zM1283.660163-128l-32.817627 29.713257a694.270211 694.270211 0 0 1 100.226808 785.62739l39.248108 20.400147a737.953134 737.953134 0 0 0-106.657289-835.740794zM318.866267 778.476085a58.761292 58.761292 0 1 0 58.761293 58.761292 58.761292 58.761292 0 0 0-58.761293-58.761292z m0 99.783327a41.022034 41.022034 0 1 1 40.800294-41.022035A41.022034 41.022034 0 0 1 318.866267 878.259412zM486.280515 778.476085a58.761292 58.761292 0 1 0 58.539552 58.761292 58.761292 58.761292 0 0 0-58.539552-58.761292z m0 99.783327a41.022034 41.022034 0 1 1 41.022034-41.022035A41.243775 41.243775 0 0 1 486.280515 878.259412zM653.473022 778.476085a58.761292 58.761292 0 1 0 58.761292 58.761292 58.761292 58.761292 0 0 0-58.761292-58.761292z m0 99.783327a41.022034 41.022034 0 1 1 41.022034-41.022035A41.022034 41.022034 0 0 1 653.473022 878.259412zM820.665529 778.476085a58.761292 58.761292 0 1 0 58.761292 58.761292 58.761292 58.761292 0 0 0-58.761292-58.761292z m0 99.783327a41.022034 41.022034 0 1 1 41.022034-41.022035A41.022034 41.022034 0 0 1 820.665529 878.259412zM987.858036 778.476085a58.761292 58.761292 0 1 0 59.204773 58.761292 58.761292 58.761292 0 0 0-59.204773-58.761292z m0 99.783327a41.022034 41.022034 0 1 1 41.022034-41.022035A41.022034 41.022034 0 0 1 987.858036 878.259412zM1155.050543 778.476085a58.761292 58.761292 0 1 0 58.761292 58.761292 58.761292 58.761292 0 0 0-58.761292-58.761292z m0 99.783327a41.022034 41.022034 0 1 1 41.022034-41.022035A41.022034 41.022034 0 0 1 1155.050543 878.259412z"  horiz-adv-x="1474" />

    
    <glyph glyph-name="shengqi" unicode="&#58902;" d="M211.141497 570.163245l35.117003 75.318821 169.524097-79.064332-35.094303-75.29612zM916.546064 491.167014l-35.094303 75.296121 169.524097 79.041631 35.094303-75.29612zM773.195144 45.882509l-129.84438 122.126358a51.07515 51.07515 0 0 1-71.959211-2.270006l-116.905343-124.169364 60.609178-56.977167 94.659277 100.788295 106.463312-99.880292zM1067.615007 760.480603l100.107293 8.626025a28.602084 28.602084 0 0 1 26.105076 31.099091L1185.428352 896l-45.400133-4.086012 6.81002-77.634227-81.94724-7.264022zM1259.203568 884.422966l-31.780093-95.340279a28.602084 28.602084 0 0 1 17.933052-36.320107l90.800266-30.645089 14.755044 45.400133-73.775217 24.743072 26.105077 78.088229zM1269.191597 648.796276l-53.572157 85.125249a28.602084 28.602084 0 0 1-39.498115 9.761029L1094.628086 691.699401l25.197074-38.817113 65.603192 40.633119 45.400133-69.689204zM194.343448-127.318998A755.458213 755.458213 0 0 0 85.61013 727.792507l40.406118-21.111062a709.604079 709.604079 0 0 1 101.923299-802.901352zM1314.137729-128l-33.596099 30.64509a710.285081 710.285081 0 0 1 102.604301 804.036355l40.179118 21.111062a755.912215 755.912215 0 0 0-109.18732-855.792507z"  horiz-adv-x="1509" />

    
    <glyph glyph-name="guaiqiao" unicode="&#58903;" d="M232.811506-128A903.944828 903.944828 0 0 0 102.706466 896l48.348011-25.260477a849.077984 849.077984 0 0 1 121.956499-961.527852zM1572.703283-128l-40.199469 36.668435A849.892838 849.892838 0 0 1 1655.275167 870.739523L1703.351559 896a904.488064 904.488064 0 0 0-130.648276-1024zM898.275697-38.09443c-123.314589 0-223.270027 91.535279-223.270026 204.256764h54.323607c0-81.485411 75.781432-149.933156 168.946419-149.933156s168.946419 67.361273 168.946419 149.933156h54.323608c0-112.721485-100.227056-204.256764-223.270027-204.256764zM232.811506-128A903.944828 903.944828 0 0 0 102.706466 896l48.348011-25.260477a849.077984 849.077984 0 0 1 121.956499-961.527852zM1572.703283-128l-40.199469 36.668435A849.892838 849.892838 0 0 1 1655.275167 870.739523L1703.351559 896a904.488064 904.488064 0 0 0-130.648276-1024zM898.275697-38.09443c-123.314589 0-223.270027 91.535279-223.270026 204.256764h54.323607c0-81.485411 75.781432-149.933156 168.946419-149.933156s168.946419 67.361273 168.946419 149.933156h54.323608c0-112.721485-100.227056-204.256764-223.270027-204.256764zM1500.181267 648.012732h-54.323607c0 82.843501-75.781432 150.204775-168.946419 150.204775s-168.946419-67.361273-168.946419-150.204775h-54.323608c0 112.721485 100.227056 204.528382 223.270027 204.528382s223.270027-91.806897 223.270026-204.528382zM742.91018 648.012732h-54.323607c0 82.843501-75.781432 150.204775-169.218038 150.204775s-168.946419-67.361273-168.946419-150.204775h-54.323607c0 112.721485 100.227056 204.528382 223.270026 204.528382s223.541645-91.806897 223.541645-204.528382zM156.514 364.986737l45.278726 128.611141 51.254324-18.035438-45.278727-128.61114zM295.500949 365.122546l42.31809 116.687109 51.064191-18.52435-42.31809-116.687109zM1407.722488 365.149708l45.251565 128.638303 51.254323-18.035438-45.251565-128.638302zM1546.410657 365.47565l42.290929 116.71427 51.064191-18.497188-42.290929-116.71427zM156.514 364.986737l45.278726 128.611141 51.254324-18.035438-45.278727-128.61114zM295.500949 365.122546l42.31809 116.687109 51.064191-18.52435-42.31809-116.687109zM1407.722488 365.149708l45.251565 128.638303 51.254323-18.035438-45.251565-128.638302zM1546.410657 365.47565l42.290929 116.71427 51.064191-18.497188-42.290929-116.71427z"  horiz-adv-x="1806" />

    
    <glyph glyph-name="qinqin" unicode="&#58904;" d="M232.811506-128A903.944828 903.944828 0 0 0 102.706466 896l48.348011-25.260477a849.077984 849.077984 0 0 1 121.956499-961.527852zM1572.703283-128l-40.199469 36.668435A849.892838 849.892838 0 0 1 1655.275167 870.739523L1703.351559 896a904.488064 904.488064 0 0 0-130.648276-1024zM232.811506-128A903.944828 903.944828 0 0 0 102.706466 896l48.348011-25.260477a849.077984 849.077984 0 0 1 121.956499-961.527852zM1572.703283-128l-40.199469 36.668435A849.892838 849.892838 0 0 1 1655.275167 870.739523L1703.351559 896a904.488064 904.488064 0 0 0-130.648276-1024zM154.449703 365.122546L199.674106 493.733687l51.254323-18.035438-45.278726-128.61114zM293.137872 365.231194l42.290929 116.71427 51.064191-18.52435-42.263767-116.687109zM1405.386573 364.986737l45.251565 128.638303 51.227161-18.035438-45.224403-128.61114zM1544.292037 365.339841l42.290928 116.71427 51.064191-18.52435-42.263766-116.687108zM154.449703 365.122546L199.674106 493.733687l51.254323-18.035438-45.278726-128.61114zM293.137872 365.231194l42.290929 116.71427 51.064191-18.52435-42.263767-116.687109zM1405.386573 364.986737l45.251565 128.638303 51.227161-18.035438-45.224403-128.61114zM1544.292037 365.339841l42.290928 116.71427 51.064191-18.52435-42.263766-116.687108zM367.534053 615.418568l-35.310345 42.372413c7.062069 5.703979 174.922016 137.981963 375.919363 64.645093l-18.741644-51.064191c-170.576127 62.743767-320.509284-54.866844-321.867374-55.953315zM1412.72026 615.418568c-1.629708 0-151.834483 118.697082-323.225465 55.953315l-18.741644 51.064191c200.997347 73.065252 368.857294-58.941114 375.104509-64.645093zM856.718138-51.132095l-12.766048 38.569761 129.290185 43.458886-70.620689 44.002122a36.125199 36.125199 0 0 0-16.025464 27.161803 34.767109 34.767109 0 0 0 10.049867 27.161804l2.444562 2.172944 69.805836 51.607428-143.142706 37.754907 10.321486 39.384615 154.007427-40.742706a35.310345 35.310345 0 0 0 25.260477-24.717241 35.853581 35.853581 0 0 0-8.963395-34.495491l-2.444562-1.901326-72.522016-54.323607 73.065252-46.175067a35.581963 35.581963 0 0 0-2.716181-61.114058l-2.987798-1.35809zM1414.893204 230.264191a83.386737 83.386737 0 0 1-89.090716-23.902387 83.386737 83.386737 0 1 1-124.401061-110.548541l123.04297-122.499735 124.401061 120.598408a79.312467 79.312467 0 0 1 19.013263 30.692839 83.658355 83.658355 0 0 1-52.965517 105.659416z"  horiz-adv-x="1806" />

    
    <glyph glyph-name="zhayan" unicode="&#58905;" d="M452.550498 884.86366h99.412202v-223.813262h-99.412202zM1409.189225 707.225464l-124.401061 32.594165 106.745889 93.436604-45.360213 51.607427-175.73687-156.180371a13.580902 13.580902 0 0 1 5.432361-23.087533l217.29443-59.212732zM902.621586-78.565517A380.265252 380.265252 0 0 0 524.529278 300.070027v55.953315h54.323608v-55.953315a324.311936 324.311936 0 1 1 648.352254 0v55.953315h54.323608v-55.953315a380.265252 380.265252 0 0 0-378.907162-378.635544zM232.811506-128A903.944828 903.944828 0 0 0 102.706466 896l48.348011-25.260477a849.077984 849.077984 0 0 1 121.956499-961.527852zM1572.703283-128l-40.199469 36.668435A849.892838 849.892838 0 0 1 1655.275167 870.739523L1703.351559 896a904.488064 904.488064 0 0 0-130.648276-1024z"  horiz-adv-x="1806" />

    
    <glyph glyph-name="zhuoji" unicode="&#58906;" d="M1455.907527 529.858886l-124.401061 32.594164 106.474271 93.436605-46.446684 51.335809-174.650398-156.180371a13.580902 13.580902 0 0 1 5.432361-23.359151l217.294429-59.212732zM334.396652 529.858886l124.401061 32.594164-106.47427 93.436605 45.360212 51.335809 175.73687-156.180371a13.580902 13.580902 0 0 0-5.432361-23.359151l-217.29443-59.212732zM232.811506-128A903.944828 903.944828 0 0 0 102.706466 896l48.348011-25.260477a849.077984 849.077984 0 0 1 121.956499-961.527852zM1572.703283-128l-40.199469 36.668435A849.892838 849.892838 0 0 1 1655.275167 870.739523L1703.351559 896a904.488064 904.488064 0 0 0-130.648276-1024zM894.473045 17.587268a33.137401 33.137401 0 0 0-27.161804 14.667374l-86.374536 131.734748-90.448806-130.919894a31.236074 31.236074 0 0 0-27.161804-14.124138 32.594164 32.594164 0 0 0-25.803713 14.667374l-81.485412 95.609549 31.236075 27.161804 76.05305-90.448806 90.720424 132.006366a33.680637 33.680637 0 0 0 27.161804 14.124137 32.594164 32.594164 0 0 0 27.161804-14.667374l86.646154-132.006366 95.337931 132.549603a33.137401 33.137401 0 0 0 27.161804 13.580901 32.594164 32.594164 0 0 0 27.161803-15.482228l81.485411-129.018567 70.62069 96.152785 32.865783-24.445624-77.954377-103.75809a31.236074 31.236074 0 0 0-27.161804-14.395756 33.137401 33.137401 0 0 0-27.161804 15.482228l-81.485411 129.018568-95.337931-132.82122a32.322546 32.322546 0 0 0-26.075331-14.667374z m225.442971 39.927851zM268.121851 727.868435a261.56817 261.56817 0 0 0-36.125199 2.172944l7.876923 54.323608a279.766578 279.766578 0 0 1 222.455173 76.05305l39.112997-37.754907a321.05252 321.05252 0 0 0-233.319894-94.794695zM1522.182329 727.868435a321.595756 321.595756 0 0 0-233.319894 94.794695l39.112997 37.483289a277.865252 277.865252 0 0 1 222.455172-76.05305l7.876923-54.323608a261.56817 261.56817 0 0 0-36.125198-1.901326z"  horiz-adv-x="1806" />

    
    <glyph glyph-name="xingxingyan" unicode="&#58907;" d="M232.570532-127.18493A903.912974 903.912974 0 0 0 102.430973 896l48.360838-24.99549a849.303263 849.303263 0 0 1 121.988857-961.782966zM1572.817813-128l-40.210136 36.406474A850.661714 850.661714 0 0 1 1655.411604 871.00451L1703.500752 896a904.184664 904.184664 0 0 0-130.682939-1024zM400.203326 532.750332l18.203237 114.924913-84.495622 79.876891 114.924914 18.474927 49.990979 104.87238 52.97957-102.970549 115.196604-15.214646-81.507031-81.507031 21.191828-114.381534-103.78562 52.70788z m-7.607323 176.870257l54.338021-52.1645-11.682675-74.714778 66.292386 36.134783 67.922526-33.961262-13.856196 74.443088 54.338021 54.338021-74.986469 10.052533-34.504643 67.107456-32.602812-70.096047zM1204.949413 532.750332l17.931546 114.924913-84.223932 79.876891 114.924914 18.474927 49.990979 104.87238 54.338021-103.51393 115.196604-15.214645-81.507031-81.507031 21.191828-114.381534-103.51393 52.70788z m-7.607323 176.870257l54.33802-52.1645-11.682674-74.714778 66.292385 36.134783 67.650836-33.961262-13.856195 74.443088 54.33802 54.338021-74.986468 10.052533-34.232953 67.107456-33.417883-70.096047zM904.188468 35.014062a89.386044 89.386044 0 0 0-58.956752 22.006898l-143.995755 125.792518a8.965773 8.965773 0 0 0 0 12.226055l24.452109 27.16901a8.694083 8.694083 0 0 0 12.226055 0l143.724064-125.792518a35.048023 35.048023 0 0 1 46.459008 0l143.995755 125.792518a8.694083 8.694083 0 0 0 12.226055 0l24.180419-27.16901a8.422393 8.422393 0 0 0 0-12.226055l-143.724065-125.792518a89.386044 89.386044 0 0 0-60.586893-22.006898z"  horiz-adv-x="1806" />

    
    <glyph glyph-name="haixiu" unicode="&#58908;" d="M232.811506-128A903.944828 903.944828 0 0 0 102.706466 896l48.348011-25.260477a849.077984 849.077984 0 0 1 121.956499-961.527852zM1572.703283-128l-40.199469 36.668435A849.892838 849.892838 0 0 1 1655.275167 870.739523L1703.351559 896a904.488064 904.488064 0 0 0-130.648276-1024zM501.984981 694.459416c-125.215915 0-223.270027 57.039788-223.270026 129.833422h54.323607c0-35.581963 72.250398-75.509814 168.946419-75.509814s168.946419 39.927851 168.946419 75.509814h54.323608c0-72.793634-98.054111-129.833422-223.270027-129.833422zM243.40461 759.376127a57.583024 57.583024 0 0 0-32.322547 8.963396l14.667374 22.815915c19.828117-13.037666 50.792573 0 68.719364 27.161803l22.815915-14.667374a91.535279 91.535279 0 0 0-73.880106-44.27374zM287.135114 714.015915a45.63183 45.63183 0 0 0-17.111937 3.259417l10.321486 24.988859a29.06313 29.06313 0 0 1 25.532095 5.975597 87.461008 87.461008 0 0 1 27.161804 36.940053l24.988859-10.321486a113.264721 113.264721 0 0 0-36.940053-48.619628 60.027586 60.027586 0 0 0-33.952254-12.222812zM902.621586-38.09443c-123.314589 0-223.541645 91.535279-223.541645 204.256764h54.323608c0-81.485411 75.781432-149.933156 169.218037-149.933156s168.946419 67.361273 168.946419 149.933156h54.323607c0.543236-112.721485-99.68382-204.256764-223.270026-204.256764zM155.699145 365.041061l45.278727 128.611141 51.254324-18.035438-45.278727-128.611141zM294.686095 365.17687l42.31809 116.687109 51.064191-18.52435-42.31809-116.687109zM1406.826148 364.932414l45.251565 128.638302 51.254324-18.035437-45.251565-128.611141zM1545.894583 365.122546l42.290929 116.714271 51.064191-18.470027-42.263767-116.741432zM1304.073045 694.459416c-125.215915 0-223.270027 57.039788-223.270027 129.833422h54.323608c0-35.581963 72.250398-75.509814 168.946419-75.509814s168.946419 39.927851 168.946419 75.509814h54.323607c0-72.793634-98.054111-129.833422-223.270026-129.833422zM1562.653416 759.376127a91.535279 91.535279 0 0 0-73.880106 44.545358l22.815915 14.667374c17.92679-27.161804 48.619629-39.927851 68.719363-27.161803l14.667374-22.815915a57.583024 57.583024 0 0 0-32.322546-9.235014zM1519.19453 714.015915a59.48435 59.48435 0 0 0-34.495491 12.222812 111.635013 111.635013 0 0 0-37.211671 48.619628l24.98886 10.321486a87.461008 87.461008 0 0 1 27.161803-36.940053 29.06313 29.06313 0 0 1 25.532096-5.975597l10.321485-24.988859a45.360212 45.360212 0 0 0-16.297082-3.259417zM232.811506-128A903.944828 903.944828 0 0 0 102.706466 896l48.348011-25.260477a849.077984 849.077984 0 0 1 121.956499-961.527852zM1572.703283-128l-40.199469 36.668435A849.892838 849.892838 0 0 1 1655.275167 870.739523L1703.351559 896a904.488064 904.488064 0 0 0-130.648276-1024zM501.984981 694.459416c-125.215915 0-223.270027 57.039788-223.270026 129.833422h54.323607c0-35.581963 72.250398-75.509814 168.946419-75.509814s168.946419 39.927851 168.946419 75.509814h54.323608c0-72.793634-98.054111-129.833422-223.270027-129.833422zM243.40461 759.376127a57.583024 57.583024 0 0 0-32.322547 8.963396l14.667374 22.815915c19.828117-13.037666 50.792573 0 68.719364 27.161803l22.815915-14.667374a91.535279 91.535279 0 0 0-73.880106-44.27374zM287.135114 714.015915a45.63183 45.63183 0 0 0-17.111937 3.259417l10.321486 24.988859a29.06313 29.06313 0 0 1 25.532095 5.975597 87.461008 87.461008 0 0 1 27.161804 36.940053l24.988859-10.321486a113.264721 113.264721 0 0 0-36.940053-48.619628 60.027586 60.027586 0 0 0-33.952254-12.222812zM902.621586-38.09443c-123.314589 0-223.541645 91.535279-223.541645 204.256764h54.323608c0-81.485411 75.781432-149.933156 169.218037-149.933156s168.946419 67.361273 168.946419 149.933156h54.323607c0.543236-112.721485-99.68382-204.256764-223.270026-204.256764zM155.699145 365.041061l45.278727 128.611141 51.254324-18.035438-45.278727-128.611141zM294.686095 365.17687l42.31809 116.687109 51.064191-18.52435-42.31809-116.687109zM1406.826148 364.932414l45.251565 128.638302 51.254324-18.035437-45.251565-128.611141zM1545.894583 365.122546l42.290929 116.714271 51.064191-18.470027-42.263767-116.741432zM1304.073045 694.459416c-125.215915 0-223.270027 57.039788-223.270027 129.833422h54.323608c0-35.581963 72.250398-75.509814 168.946419-75.509814s168.946419 39.927851 168.946419 75.509814h54.323607c0-72.793634-98.054111-129.833422-223.270026-129.833422zM1562.653416 759.376127a91.535279 91.535279 0 0 0-73.880106 44.545358l22.815915 14.667374c17.92679-27.161804 48.619629-39.927851 68.719363-27.161803l14.667374-22.815915a57.583024 57.583024 0 0 0-32.322546-9.235014zM1519.19453 714.015915a59.48435 59.48435 0 0 0-34.495491 12.222812 111.635013 111.635013 0 0 0-37.211671 48.619628l24.98886 10.321486a87.461008 87.461008 0 0 1 27.161803-36.940053 29.06313 29.06313 0 0 1 25.532096-5.975597l10.321485-24.988859a45.360212 45.360212 0 0 0-16.297082-3.259417z"  horiz-adv-x="1806" />

    
    <glyph glyph-name="wuhuakeshuo" unicode="&#58909;" d="M452.550498 772.957029h99.412202v-223.813262h-99.412202zM1254.366944 772.957029h99.412201v-223.813262h-99.412201zM232.811506-128A903.944828 903.944828 0 0 0 102.706466 896l48.348011-25.260477a849.077984 849.077984 0 0 1 121.956499-961.527852zM1572.703283-128l-40.199469 36.668435A849.892838 849.892838 0 0 1 1655.275167 870.739523L1703.351559 896a904.488064 904.488064 0 0 0-130.648276-1024zM232.811506-128A903.944828 903.944828 0 0 0 102.706466 896l48.348011-25.260477a849.077984 849.077984 0 0 1 121.956499-961.527852zM1572.703283-128l-40.199469 36.668435A849.892838 849.892838 0 0 1 1655.275167 870.739523L1703.351559 896a904.488064 904.488064 0 0 0-130.648276-1024z"  horiz-adv-x="1806" />

    
    <glyph glyph-name="weiqu" unicode="&#58910;" d="M452.550498 698.262069m49.706101 0l0 0q49.706101 0 49.706101-49.706101l0-56.224934q0-49.706101-49.706101-49.7061l0 0q-49.706101 0-49.706101 49.7061l0 56.224934q0 49.706101 49.706101 49.706101ZM1254.366944 698.262069m49.706101 0l0 0q49.706101 0 49.7061-49.706101l0-56.224934q0-49.706101-49.7061-49.7061l0 0q-49.706101 0-49.706101 49.7061l0 56.224934q0 49.706101 49.706101 49.706101ZM1136.213098 62.132626a380.265252 380.265252 0 0 1-459.849337 2.172944l-32.050929 43.730504a434.588859 434.588859 0 0 0 524.766048-2.444562zM1201.401427-17.723077a180.625995 180.625995 0 0 0-78.497613 116.25252 186.601592 186.601592 0 0 0 27.161804 139.068435L1195.42583 207.991512a132.549602 132.549602 0 0 1-19.013263-98.868966 124.944297 124.944297 0 0 1 54.323608-81.485411zM465.044928 733.572414a236.307692 236.307692 0 0 0-171.119363 74.966578l38.298143 37.483289a170.032891 170.032891 0 0 1 239.295491-16.025464l37.211671-39.656233a208.602653 208.602653 0 0 0-143.685942-56.76817zM1366.545193 733.572414h-14.124138a237.122546 237.122546 0 0 0-157.266843 74.69496l39.384615 37.483289a182.255703 182.255703 0 0 1 121.413263-57.854642 153.192573 153.192573 0 0 1 117.067374 42.100796l37.483289-39.656233a208.331034 208.331034 0 0 0-143.95756-56.76817zM232.811506-128A903.944828 903.944828 0 0 0 102.706466 896l48.348011-25.260477a849.077984 849.077984 0 0 1 121.956499-961.527852zM1572.703283-128l-40.199469 36.668435A849.892838 849.892838 0 0 1 1655.275167 870.739523L1703.351559 896a904.488064 904.488064 0 0 0-130.648276-1024zM232.811506-128A903.944828 903.944828 0 0 0 102.706466 896l48.348011-25.260477a849.077984 849.077984 0 0 1 121.956499-961.527852zM1572.703283-128l-40.199469 36.668435A849.892838 849.892838 0 0 1 1655.275167 870.739523L1703.351559 896a904.488064 904.488064 0 0 0-130.648276-1024zM1363.557395 542.624934m-31.507692 0a31.507692 31.507692 0 1 1 63.015384 0 31.507692 31.507692 0 1 1-63.015384 0ZM442.229013 542.624934m-31.507692 0a31.507692 31.507692 0 1 1 63.015384 0 31.507692 31.507692 0 1 1-63.015384 0ZM240.416811 224.342918l48.456658 96.940477 48.592467-24.309814-48.48382-96.913316zM331.300206 229.04191l48.48382 96.913315 48.565305-24.282652-48.456658-96.967639zM1398.86774 280.513528l48.456657 96.940477 48.619629-24.309814-48.510981-96.913316zM1489.479517 285.21252l48.483819 96.913316 48.565306-24.282653-48.456658-96.940477z"  horiz-adv-x="1806" />

    


  </font>
</defs>
</svg>
